<?xml version="1.0"?>
<svg xmlns="http://www.w3.org/2000/svg" width="509" height="310.601">
  <defs>
    <linearGradient id="a" x1=".5" x2=".5" y2="1" gradientUnits="objectBoundingBox">
      <stop offset="0" stop-color="#ffb318" />
      <stop offset="1" stop-color="#ff9b4b" />
    </linearGradient>
    <style>.b,.c{fill:none;stroke:#0357ff}.b{stroke-miterlimit:10}.g{fill:#ffae00}.h{fill:#0c1121}.i{fill:#14254c}.j{fill:#0c1b38}.k{fill:#22b573}.l{fill:#e9ac6a}.m,.p{fill:#e26841}.n{fill:#fff}.p{fill-rule:evenodd}</style>
  </defs>
  <g transform="translate(-235.421 -2552.623)">
    <path transform="translate(428.015 2609.606)" fill="url(#a)" d="M0 0h203.244v132.322H0z" />
    <path class="b" d="M529.742 2584.741h104.08c6.851 0 12.4 5.86 12.4 13.089v120.8c0 7.229-5.553 13.089-12.4 13.089h-104.08M529.742 2731.716H425.673c-6.851 0-12.4-5.86-12.4-13.089v-120.8c0-7.229 5.553-13.089 12.4-13.089h104.069M413.269 2597.838h232.957M413.269 2718.658h232.957M500.354 2763.144h58.787M522.514 2731.975s.479 29.97-16.295 31.169M536.982 2731.975s-.479 29.97 16.295 31.169" />
    <ellipse class="c" cx="21.682" cy="21.952" rx="21.682" ry="21.952" transform="translate(474.227 2622.102)" />
    <path class="c" d="M488.677 2651.365l8.587-8.682 5.876-5.94" />
    <path class="b" d="M488.677 2636.743l14.462 14.622" />
    <ellipse class="c" cx="21.682" cy="21.952" rx="21.682" ry="21.952" transform="translate(541.903 2622.102)" />
    <path class="b" d="M556.353 2651.365l14.462-14.622M556.353 2636.743l14.462 14.622M501.964 2683.84h55.566a6.055 6.055 0 016.055 6.055 6.055 6.055 0 01-6.055 6.054h-55.566a6.055 6.055 0 01-6.055-6.054 6.055 6.055 0 016.055-6.055zM443.211 2567.074a22.591 22.591 0 00-22.592 22.59" />
    <circle cx="10.251" cy="10.251" r="10.251" transform="translate(433.488 2581.445)" fill="#e55246" />
    <path class="b" d="M430.016 2584.649a15.625 15.625 0 00-.088 13.338M455.586 2580.914a15.607 15.607 0 00-16.439-4.3M459.339 2589.267a15.546 15.546 0 00-.548-3.125M451.1 2605.892a15.62 15.62 0 007.253-7.9" />
    <path fill="#f4f5f6" d="M437.889 2590.356h11.701v2.682h-11.701z" />
    <path d="M451.853 2709.177l-1.138-.3a16.451 16.451 0 00-.615-4.706l1.055-.638a17.28 17.28 0 00-3.862-6.763l-1.061.61a15.611 15.611 0 00-3.724-2.866l.3-1.169a16.135 16.135 0 00-7.45-1.933l-.3 1.169a15.572 15.572 0 00-4.628.688l-.6-1.032a17.273 17.273 0 00-6.663 4.031l.582 1.046a16.376 16.376 0 00-2.841 3.827l-1.138-.3a17.369 17.369 0 00-1.982 7.638l1.138.3a16.392 16.392 0 00.615 4.724l-1.015.63a17.215 17.215 0 003.861 6.763l1.031-.607a15.552 15.552 0 003.709 2.852l-.3 1.169a16.14 16.14 0 007.449 1.933l.3-1.169a15.516 15.516 0 004.614-.683l.612 1.072a17.251 17.251 0 006.664-4.031l-.583-1.077a16.428 16.428 0 002.85-3.841l1.138.3a17.387 17.387 0 001.982-7.637zm-18.522 5.4a5.933 5.933 0 117.124-4.433c-.012.049-.023.1-.036.145a5.859 5.859 0 01-7.088 4.288z" fill="#3d57d8" />
    <path class="g" d="M439.979 2706.852l3.63-2.7.984 1.155 6.232-10.146 2.427 13.586-4.358-3.956-3.679 5.244-2.327-4.587z" />
    <path class="b" d="M449.769 2700.773l4.455-4.954M457.46 2705.79l-6.572-1.093M450.74 2702.637l5.797-2.414M400.669 2700.881a26.755 26.755 0 005.783 2.393v5.1a30.322 30.322 0 0014.112 0v-5.182a26.853 26.853 0 005.783-2.31l3.669 3.578a31.252 31.252 0 009.967-9.967l-3.579-3.663a26.768 26.768 0 002.393-5.783h5.1a30.315 30.315 0 000-14.111h-5.182a26.757 26.757 0 00-2.31-5.783l3.579-3.671a31.221 31.221 0 00-9.967-9.97l-3.663 3.58a26.691 26.691 0 00-5.783-2.393v-5.1a30.342 30.342 0 00-14.112 0v5.183M413.508 2687.853a9.87 9.87 0 000-19.739" />
    <path class="b" d="M425.865 2660.757a26.751 26.751 0 00-5.783-2.394v-5.1a30.318 30.318 0 00-14.111 0v5.183a26.564 26.564 0 00-5.783 2.31l-3.663-3.58a31.192 31.192 0 00-9.967 9.967l3.58 3.663a26.566 26.566 0 00-2.393 5.783h-5.1a30.314 30.314 0 000 14.111h5.183a26.606 26.606 0 002.31 5.783l-3.58 3.663a31.2 31.2 0 009.967 9.967l3.663-3.58a26.674 26.674 0 005.783 2.394v5.1a30.344 30.344 0 0014.111 0v-5.186" />
    <path class="b" d="M413.022 2673.784a9.87 9.87 0 10-.2 19.739h.2" />
    <path class="h" d="M583.881 2815.773a6.352 6.352 0 01-6.16-4.827l-7.893-31.9a6.35 6.35 0 1112.329-3.046l7.9 31.9a6.355 6.355 0 01-6.169 7.878z" />
    <path class="h" d="M590.526 2810.075a6.465 6.465 0 01-6.076 6.832 6.42 6.42 0 01-.46.011l-2.456-.031-22.118-.279a3.992 3.992 0 01-.561-7.936l11.766-2.055 12.149-2.5a6.472 6.472 0 017.756 5.955z" />
    <path class="i" d="M576.677 2790.938a14.116 14.116 0 01-13.711-10.819 105.749 105.749 0 01-2.649-20.8c-.351-16.485 4.179-28.247 13.465-34.96 10.274-7.428 25.407-7.55 41.521-.335 14.98 6.707 29.312 18.815 41.448 35.013a14.113 14.113 0 01-22.528 17.006l-.062-.083c-8.8-11.752-19.24-20.883-29.384-25.709-8.514-4.051-13.445-3.443-14.434-3.02-2.214 2.586-2.625 15.086.068 26.3a14.127 14.127 0 01-13.733 17.412zm13.583-43.669l.151-.116" />
    <path class="j" d="M631.252 2773.888a10.866 10.866 0 01-1.128-.06c-24.17-2.559-43.279-22.291-43.5-44.922-.122-12.351 5.506-24.518 15.443-33.382a49.8 49.8 0 0139.343-12.193 10.584 10.584 0 01-2.619 21.006 28.662 28.662 0 00-22.633 6.984c-5.38 4.8-8.429 11.131-8.367 17.375.132 13.281 12.854 22.84 24.565 24.08a10.585 10.585 0 01-1.1 21.111z" />
    <path class="j" d="M670.852 2773.888a10.585 10.585 0 01-1.1-21.111c11.711-1.24 24.434-10.8 24.565-24.08.062-6.244-2.988-12.577-8.367-17.375a28.648 28.648 0 00-22.633-6.984 10.584 10.584 0 11-2.618-21.006 49.805 49.805 0 0139.343 12.193c9.937 8.864 15.566 21.031 15.444 33.382-.225 22.631-19.335 42.362-43.5 44.922a11.081 11.081 0 01-1.134.059z" />
    <path d="M683.631 2738.75l1.017-27.919a29.1 29.1 0 00-33.09-30.031 29.121 29.121 0 00-23.585 36.975l7.718 26.849a24.53 24.53 0 0026.1 17.726 24.534 24.534 0 0021.84-23.6z" />
    <path class="h" d="M622.737 2796.467a6.465 6.465 0 00-9.005 1.585 6.52 6.52 0 00-.25.386l-1.263 2.106-11.374 18.971a3.992 3.992 0 006.46 4.645l7.925-8.936 8.5-9.029a6.468 6.468 0 00-1-9.728z" />
    <path class="h" d="M618.173 2808.489a6.351 6.351 0 01-.183-12.7c11.9-.35 23.964-1.018 35.852-1.984a703.342 703.342 0 0019.833-1.9 6.35 6.35 0 011.392 12.624c-6.7.739-13.494 1.39-20.2 1.935a709.53 709.53 0 01-36.694 2.025z" />
    <path class="i" d="M671.024 2816.831c-9.345 0-16.74-.482-18.715-.624a14.112 14.112 0 112.026-28.152 243.677 243.677 0 0026.758.325c14.337-.683 21.22-2.694 24.219-3.961a10.854 10.854 0 00-1.975-2.726c-1.381-1.311-6.083-2-14.277-3.109l-.977-.132a110.214 110.214 0 00-18.561-.936c-.165 0-.329.008-.492.008a14.113 14.113 0 01-.476-28.217 138.565 138.565 0 0123.316 1.175l.97.131c12.7 1.716 21.87 2.956 29.933 10.613 7.507 7.131 14.023 20.169 10.593 31.948-5.246 18.018-28.6 21.8-45.7 23.081-5.75.43-11.49.576-16.642.576z" />
    <path class="k" d="M637.714 2745.878l46.356-7.366 2.462 15.496-46.356 7.366zM671.474 2668.382c6.408-2.531 10.868-2.031 13.756-2.665 5.314-1.166 11.715-7.789 16.264-32.054l-11.32-3.221c-.84 19.054-5.75 25.731-10.44 28.086-2.134 1.071-5.033 1.833-8.857 4.568a25.011 25.011 0 00-8.237 10.6 31.924 31.924 0 018.834-5.314z" />
    <path class="k" d="M684.431 2627.028l-9.9-3.847c1.64 13.4-1.393 20.96-4.567 25.415-2.191 3.076-4.936 5.94-6.984 11.274a21.84 21.84 0 00-.568 12.782 32.382 32.382 0 017.376-11.764c3.677-3.689 6.281-5.159 8.364-6.967 3.925-3.403 7.783-10.477 6.279-26.893z" />
    <path class="j" d="M655.82 2659.766l-2.423.081a17.253 17.253 0 00-16.674 17.815q.018.564.074 1.125l1.827 18.509a17.253 17.253 0 0017.743 15.55 17.254 17.254 0 0016.673-16.691l.6-18.589a17.256 17.256 0 00-16.692-17.8q-.564-.019-1.128 0z" />
    <path class="k" d="M636.804 2679.199l36.898-1.219.303 9.18-36.898 1.218z" />
    <path class="l" d="M666.818 2692.295l-22.732.751a4.716 4.716 0 01-4.87-4.559 4.717 4.717 0 014.559-4.87l22.732-.751a4.717 4.717 0 014.87 4.559 4.717 4.717 0 01-4.559 4.87z" />
    <path class="m" d="M652.566 2692.768l4.1-.136-.261-7.871z" />
    <path class="n" d="M646 2690.771l-2.319.077a1.315 1.315 0 01-1.359-1.272 1.315 1.315 0 011.271-1.358l2.32-.077a1.315 1.315 0 011.359 1.271 1.316 1.316 0 01-1.272 1.359zM666.178 2690.1l-2.319.077a1.315 1.315 0 01-1.358-1.271 1.315 1.315 0 011.271-1.357l2.319-.077a1.315 1.315 0 011.358 1.271 1.314 1.314 0 01-1.271 1.357z" />
    <circle cx="1.333" cy="1.333" r="1.333" transform="translate(643.596 2689.267)" />
    <circle cx="1.333" cy="1.333" r="1.333" transform="translate(663.769 2688.598)" />
    <path fill="#4f5d6c" d="M616.858 2731.343h83.183v60.236h-83.183z" />
    <path d="M616.858 2790.155h83.183v5.392h-83.183z" />
    <path class="n" d="M660.528 2759.668l-3.3-4.374-.477 3.994-4.374 3.3 3.994.477 3.3 4.374.477-3.993 4.374-3.3zm-2.165 2.429a.737.737 0 11.819-.645.737.737 0 01-.819.645z" />
    <g transform="translate(-1)">
      <path class="g" d="M704.9 2677.606h7v-7z" />
      <circle class="g" cx="18.129" cy="18.129" r="18.129" transform="translate(708.686 2649.984)" />
      <path class="b" d="M721.975 2663.3a4.841 4.841 0 114.841 4.841v4.576" />
      <circle class="b" cx="1.21" cy="1.21" r="1.21" transform="translate(725.605 2675.612)" />
    </g>
    <path class="l" d="M539.813 2844.825l30.083-1.777 79.994 1.467 57.874 1.2a1.985 1.985 0 011.943 1.979 1.985 1.985 0 01-1.923 1.99l-57.875 1.8-79.984 1.919-30.092-1.608z" />
    <rect width="6.133" height="7.86" rx="2.306" transform="translate(648.455 2844.079)" />
    <rect width="5.751" height="5.227" rx="1.966" transform="translate(704.1 2845.065)" />
    <path d="M483.547 2854.236l-.032-11.516 56.473 2.1.02 7z" />
    <rect width="4.969" height="29.363" rx="1.869" transform="translate(538.828 2833.861)" />
    <path class="i" d="M372.271 2676.13a22.075 22.075 0 01-9.092-2.058c-17.893-8.069-24.181-27.956-24.839-30.2a10.653 10.653 0 0120.443-6c1.019 3.469 5.354 13.225 13.1 16.754a39.4 39.4 0 004.237-6.069l.183-.3a10.653 10.653 0 0118.164 11.135l-.179.293c-2.3 3.759-5.169 8.437-9.412 11.839a19.921 19.921 0 01-12.605 4.606z" />
    <path class="m" d="M406.918 2614.342l-29.88 27.8 17.957 21.446 22.031-41.686z" />
    <path class="m" d="M432.584 2626.225a2 2 0 001.417-1.7l.641-5.946a2 2 0 00-1.775-2.2 2.1 2.1 0 00-.325-.008l-28.35 1.525 3.818 10.51a4.151 4.151 0 004.641 2.668z" />
    <path class="m" d="M402.815 2624.119l1.7-7.137a7.11 7.11 0 015.322-5.287l8.583-1.977a1.513 1.513 0 011.8 1.884l-.281 1a1.513 1.513 0 01-.634.861z" />
    <path d="M347.067 2623.433l15.648 15.648-13.413 5.365-16.542-16.989V2606h14.307z" />
    <path class="l" d="M258.671 2854.036a6.393 6.393 0 01-5.686-9.3l35.063-68.611a6.392 6.392 0 0111.383 5.817l-35.063 68.611a6.392 6.392 0 01-5.697 3.483z" />
    <path class="l" d="M252.25 2847.264a6.505 6.505 0 006.115 6.876c.154.009.308.013.463.011l2.471-.031 22.261-.28a4.018 4.018 0 00.565-7.988l-11.842-2.068-12.227-2.513a6.507 6.507 0 00-7.806 5.993zM428.6 2854.036a6.391 6.391 0 01-5.867-3.851l-30.645-70.694a6.392 6.392 0 0111.729-5.084l30.644 70.7a6.394 6.394 0 01-5.861 8.935z" />
    <path class="l" d="M422.169 2847.264a6.5 6.5 0 006.113 6.876c.155.009.31.013.465.011l2.472-.031 22.261-.28a4.018 4.018 0 00.565-7.988l-11.842-2.068-12.228-2.513a6.5 6.5 0 00-7.806 5.993z" />
    <path d="M329.29 2713.727l22.977 65.706.78 54.609a1.851 1.851 0 001.851 1.825h99.443a1.852 1.852 0 001.521-2.907l-49.176-70.86-56.638-54.555z" />
    <path d="M306.716 2702.44l-71.07 131.084a1.85 1.85 0 001.634 2.734l107.512-.385a1.853 1.853 0 001.845-1.838l.389-52.184-12.5-71.348z" />
    <path class="m" d="M306.83 2713.191l41.132 4.918 8.121-62.339a28.817 28.817 0 00-28.463-33.337 28.815 28.815 0 00-28.463 33.337z" />
    <path class="i" d="M351.983 2698.428l-48.283-4.743 2.11 17.073a22.327 22.327 0 0044.237.573z" />
    <path class="i" d="M281.025 2727.866l16.372 14.582a1.54 1.54 0 002.307-.3l22.55-34.215a1.537 1.537 0 00-.439-2.13 1.5 1.5 0 00-.393-.186l-11.785-3.627a1.535 1.535 0 00-1.453.3l-27.138 23.26a1.535 1.535 0 00-.021 2.316zM365.092 2736.7l11.786-8.178a1.539 1.539 0 00.033-2.5l-28.676-21.029a1.538 1.538 0 00-1.637-.115l-9.728 5.225a1.537 1.537 0 00-.3 2.5l26.618 23.983a1.54 1.54 0 001.904.114z" />
    <path class="i" d="M358.742 2739.471l-18.9-30.361-23.777-1.357a1.539 1.539 0 00-1.587 1.192l-8.624 37.656z" />
    <path d="M337.678 2623.428l-21.46 18.778-25.93-10.283 14.569-11.656a8.83 8.83 0 003.314-6.9v-13.193h29.507z" />
    <path class="p" d="M315.268 2576.79c-7.857-4.049-11.942-8.783-14.235-12.487-2.653-4.287-3.538-8.219-7.593-9.928-2.511-1.058-4.1-.362-9.2-.438a54.414 54.414 0 01-11.1-1.314l-.73 5.548a27.332 27.332 0 0010.074 1.314c4.424-.274 6.143-1.52 8.76-.584 3.546 1.268 4.328 4.962 6.424 8.176 2.376 3.632 7.132 7.734 17.6 9.713z" />
    <path class="p" d="M315.741 2576.518c-8.833-.317-14.547-2.86-18.2-5.236-3.958-2.575-6.231-5.136-11.1-5.749-3.563-.448-5.15.619-9.5.229a25.285 25.285 0 01-9.345-2.774l-1.168 5.986a26.972 26.972 0 008.906 2.044c5.019.262 6.99-1.108 11.055-.458 4.331.693 6.131 2.708 9.3 4.662 3.688 2.278 9.733 3.966 20.052 1.296z" />
    <path d="M316.882 2567.693h8.069a22.449 22.449 0 0122.449 22.449v17.6a14.239 14.239 0 01-14.239 14.239H322.17a14.238 14.238 0 01-14.238-14.239v-31.1a8.985 8.985 0 018.95-8.95" fill-rule="evenodd" fill="#14254c" />
    <path d="M309.986 2597.918a17.754 17.754 0 1017.754-17.754 17.72 17.72 0 00-17.753 17.689v.065" fill="#31475c" fill-rule="evenodd" />
    <path d="M312.334 2589.261c0-.06.008-.118.009-.178a17.718 17.718 0 0130.8.071v17.519a17.718 17.718 0 01-30.812.065z" fill-rule="evenodd" fill="#e9ac6a" />
    <path d="M335.076 2602.173h-8.07v-13.939z" fill="#dc7f1b" fill-rule="evenodd" />
    <path class="i" d="M345.494 2586.911h-36.828v-1.761h36.828zM345.494 2594.984h-36.828v-1.761h36.828zM345.494 2611.124H310.87v-1.907h34.63zM345.494 2603.053h-36.828v-1.907h36.828z" />
    <path class="n" d="M320.246 2591.909H318.5a1.344 1.344 0 01-1.344-1.344 1.344 1.344 0 011.344-1.344h1.744a1.344 1.344 0 011.344 1.344 1.344 1.344 0 01-1.342 1.344zM338.485 2591.909h-1.744a1.344 1.344 0 01-1.344-1.344 1.344 1.344 0 011.344-1.344h1.744a1.344 1.344 0 011.344 1.344 1.344 1.344 0 01-1.344 1.344z" />
    <circle cx="1.362" cy="1.362" r="1.362" transform="translate(320.222 2589.213)" />
    <circle cx="1.362" cy="1.362" r="1.362" transform="translate(338.178 2589.213)" />
    <path class="m" d="M321.986 2606.491a7.345 7.345 0 014.542-.415 6.991 6.991 0 013.241 1.563l-.825.991a6.362 6.362 0 00-2.677-1.291 5.775 5.775 0 00-3.738.369z" />
    <path class="i" d="M278.2 2677.06c-5.333 0-10.693-1.8-13.922-6.31a19.489 19.489 0 01-3.41-15c2.11-12.093 14.593-22.08 25.235-29.429l.834-.578c.143-.1 15.187-10.066 25.321-10.348h.3a10.652 10.652 0 01.42 21.3c-2.559.351-10.628 4.275-13.838 6.518-.269.189-.582.4-.931.645-7.6 5.249-11.672 8.99-13.852 11.5a10.654 10.654 0 01.987 20.649 25.011 25.011 0 01-7.144 1.053zm34.691-40.363" />
    <path class="m" d="M307.894 2624.353l-32.612 28.905 17.156 21.521 26.053-42.1z" />
    <path class="m" d="M326.72 2614.944a2.273 2.273 0 011.931 1.584l3.178 7.337c.655 1.511.3 3.275-.751 3.705l-24.152 9.92-1.518-15.041c-.274-2.72.847-4.983 2.655-5.355z" />
    <path class="m" d="M307.4 2632.421l-3.16-7.888a8.238 8.238 0 011.509-8.558l6.8-7.6a1.753 1.753 0 012.957.584l.4 1.134a1.754 1.754 0 01-.026 1.238z" />
    <path class="m" d="M311.134 2619.575l5.3-5.473a10.09 10.09 0 018.635-2.47l10.855 1.643c1.417.215 2.073 1.489 1.195 2.318l-.794.749a1.989 1.989 0 01-1.138.492z" />
  </g>
</svg>